<svg xmlns="http://www.w3.org/2000/svg" width="88" height="25" viewBox="0 0 88 25" fill="none"><path fill-rule="evenodd" clip-rule="evenodd" d="M0 9.03436V4.51683H3.75173L3.75454 4.51367H4.11355L6.3825 6.78192L4.13041 9.03436H0Z" fill="#FEBA12"></path><path fill-rule="evenodd" clip-rule="evenodd" d="M29.8832 16.19V20.3029H25.9896C24.7622 20.3029 23.8847 19.3776 23.8847 18.2464C23.8847 17.1153 24.7629 16.19 25.9896 16.19H29.8832ZM26.6921 4.51855C26.5337 4.51855 26.376 4.52418 26.2186 4.52418H21.2279V9.10634L26.3591 9.10985C27.6041 9.10985 28.4991 9.43269 29.0229 9.9568C29.5881 10.522 29.8741 11.2766 29.8741 12.2142V12.4084C28.7886 12.4084 27.7031 12.3989 26.618 12.3989C25.5861 12.3966 24.5569 12.5026 23.5471 12.7151C22.5603 12.9259 21.8939 13.2649 21.1292 13.7338C20.3689 14.1978 19.7389 14.8471 19.2979 15.6209C18.8415 16.4099 18.6133 17.3718 18.6133 18.5067C18.6133 19.6913 18.8107 20.6904 19.2055 21.5043C19.5873 22.3033 20.1747 22.9865 20.9075 23.4837C21.6473 23.9896 22.3197 24.3535 23.3433 24.5752C24.367 24.7968 25.508 24.9086 26.7659 24.9086C29.5632 24.9086 32.3622 24.8889 35.1616 24.8889C35.1616 20.7566 35.1634 16.6188 35.1669 12.4755C35.1669 11.2666 35.0312 10.1689 34.7598 9.18222C34.4883 8.19558 34.0257 7.35682 33.3718 6.66596C32.7182 5.97534 31.8488 5.44513 30.7635 5.07534C29.6783 4.70555 28.3212 4.51996 26.6921 4.51855Z" fill="white"></path><path fill-rule="evenodd" clip-rule="evenodd" d="M81.7426 16.19V20.3029H77.8493C76.6216 20.3029 75.744 19.3776 75.744 18.2464C75.744 17.1153 76.6223 16.19 77.8493 16.19H81.7426ZM78.5515 4.51855C78.3931 4.51855 78.2354 4.52418 78.078 4.52418H73.0876V9.10634L78.2188 9.10985C79.4638 9.10985 80.3585 9.43269 80.8826 9.9568C81.4479 10.522 81.7338 11.2766 81.7338 12.2142V12.4084C80.6483 12.4084 79.5625 12.3989 78.4777 12.3989C77.4457 12.3966 76.4164 12.5026 75.4065 12.7151C74.4201 12.9259 73.7554 13.2649 72.9893 13.7338C72.2288 14.1978 71.5985 14.8471 71.1573 15.6209C70.7013 16.4099 70.4731 17.3718 70.4727 18.5067C70.4727 19.6913 70.6701 20.6904 71.0649 21.5043C71.4468 22.3032 72.0342 22.9864 72.7669 23.4837C73.5071 23.9896 74.1794 24.3535 75.2031 24.5752C76.2267 24.7968 77.3673 24.9086 78.6256 24.9086C81.4226 24.9086 84.222 24.8889 87.0214 24.8889C87.0214 20.7566 87.0229 16.6188 87.0259 12.4755C87.0259 11.2666 86.8902 10.1689 86.6188 9.18222C86.3474 8.19558 85.8847 7.35682 85.2309 6.66596C84.5777 5.97534 83.7084 5.44513 82.6229 5.07534C81.5374 4.70555 80.1803 4.51996 78.5515 4.51855V4.51855Z" fill="white"></path><path fill-rule="evenodd" clip-rule="evenodd" d="M45.751 4.48145C44.123 4.48145 42.7663 4.66645 41.6811 5.03647C40.5958 5.40649 39.7263 5.93694 39.0724 6.6278C38.4183 7.31819 37.9557 8.15682 37.6845 9.1437C37.4133 10.1306 37.2776 11.2283 37.2773 12.437C37.2773 16.5747 37.2792 20.7125 37.283 24.8504C39.0478 24.8504 40.8123 24.8581 42.5775 24.8637C42.5775 20.6318 42.5691 16.3953 42.5691 12.1781C42.5691 11.2409 42.8543 10.4867 43.4203 9.9211C43.9451 9.39417 44.8363 9.07555 46.0841 9.07415L51.145 9.07064V4.48847H46.227C46.0686 4.48706 45.9095 4.48145 45.751 4.48145Z" fill="white"></path><path fill-rule="evenodd" clip-rule="evenodd" d="M14.0632 24.8629C12.4353 24.8629 11.0786 24.6779 9.99285 24.3079C8.90715 23.9379 8.03772 23.4075 7.38456 22.7169C6.73047 22.0258 6.26794 21.1871 5.99698 20.2007C5.72603 19.2142 5.59031 18.1165 5.58984 16.9074C5.58984 14.9792 5.606 12.0768 5.62497 9.10883L7.95645 6.777L5.65132 4.47221C5.6601 2.75759 5.66642 1.19999 5.66642 0.013349C7.43128 0.013349 9.19614 0.00889923 10.961 0C10.961 1.20807 10.9547 2.78183 10.9455 4.51191H16.5661V9.04349H10.9164C10.8978 12.125 10.8813 15.1559 10.8813 17.1673C10.8813 18.1045 11.1676 18.8595 11.7328 19.4247C12.2569 19.9484 13.1488 20.2678 14.3966 20.2713L16.5208 20.2748V24.8562H14.5374C14.3822 24.8576 14.2216 24.8629 14.0632 24.8629Z" fill="white"></path><path fill-rule="evenodd" clip-rule="evenodd" d="M68.984 16.1169C68.984 14.8903 68.984 13.6636 68.984 12.4369C68.984 11.228 68.8493 10.1302 68.5797 9.14359C68.3102 8.15694 67.8504 7.31831 67.2006 6.62768C66.5504 5.93659 65.686 5.40614 64.6074 5.03636C62.3433 4.26002 59.1055 4.26002 56.8415 5.03636C55.7626 5.40614 54.8982 5.93659 54.2483 6.62768C53.5984 7.31878 53.1387 8.15741 52.8692 9.14359C52.5994 10.1307 52.4646 11.2285 52.4648 12.4369C52.4648 14.0528 52.5 14.768 52.5 16.908C52.5 18.1167 52.6347 19.2145 52.9043 20.2013C53.1739 21.1882 53.6336 22.027 54.2834 22.7176C54.9333 23.4082 55.7977 23.9386 56.8766 24.3086C57.9555 24.6786 59.3041 24.8636 60.9224 24.8636C61.0794 24.8636 61.2364 24.858 61.3931 24.858H68.1378V20.2748L61.2526 20.2712C60.0136 20.2712 59.1263 19.9491 58.6046 19.4247C58.0426 18.8584 57.7606 18.1059 57.7587 17.1673V16.1113H63.7218V16.1169H68.984ZM57.7253 12.4112V12.178C57.7253 11.2412 58.0073 10.4889 58.5712 9.92098C59.0216 9.46782 59.7414 9.16747 60.7253 9.0923C61.7089 9.16747 62.4294 9.46782 62.8794 9.92098C63.4429 10.487 63.7249 11.2394 63.7256 12.178V12.4112H57.7253Z" fill="white"></path></svg>